# xmcd CD database file
#
# Track frame offsets:
#	150
#	29590
#	49228
#	79625
#	91391
#	110480
#	127008
#	134219
#	158251
#	183663
#	205534
#	244964
#	300650
#	317627
#
# Disc length: 4442 seconds
#
# Revision: 1
# Processed by: cddbd v1.5.2PL0 Copyright (c) Steve Scherf et al.
# Submitted via: CDex 1.51
#
DISCID=c011580e
DTITLE=Los Dos y Companeros - Life
DYEAR=2006
DGENRE=Salsa
TTITLE0=sakaradi
TTITLE1=is eh aas
TTITLE2=döi marie
TTITLE3=otto baller
TTITLE4=gschwista
TTITLE5=kula sack
TTITLE6=afro
TTITLE7=jodeln konne aa
TTITLE8=weiba
TTITLE9=wou hanna döi
TTITLE10=anne
TTITLE11=d´nachban san necha
TTITLE12=mei mama
TTITLE13=seas
EXTD=YEAR: 2006
EXTT0=
EXTT1=
EXTT2=
EXTT3=
EXTT4=
EXTT5=
EXTT6=
EXTT7=
EXTT8=
EXTT9=
EXTT10=
EXTT11=
EXTT12=
EXTT13=
PLAYORDER=
